<?xml version="1.0" standalone="no"?><!DOCTYPE svg PUBLIC "-//W3C//DTD SVG 1.1//EN" "http://www.w3.org/Graphics/SVG/1.1/DTD/svg11.dtd"><svg t="1710079617455" class="icon" viewBox="0 0 1412 1024" version="1.1" xmlns="http://www.w3.org/2000/svg" p-id="5133" width="176.5" height="128" xmlns:xlink="http://www.w3.org/1999/xlink"><path d="M1393.516743 51.782272a71.326417 71.326417 0 0 0-49.610701-22.527848L803.837949 8.24491l-40.906759 89.140366 56.231346 167.72301-101.675454 190.815821 41.436411 153.634277 102.540552 131.794976 148.690862-135.767363c6.956091-6.355819 16.189684-9.622004 25.599828-9.268903 9.392489 0.353101 18.449531 4.466729 24.717075 11.352199l191.168921 204.392557a35.310107 35.310107 0 0 1 6.267544 38.699878 35.857414 35.857414 0 0 1-33.774117 20.479862l-523.878409-20.303312-26.129479 74.151226 28.389326 66.912653 602.213882 23.075155a71.785448 71.785448 0 0 0 51.199656-18.767322 69.790427 69.790427 0 0 0 22.810329-49.028084l33.597567-844.917905a69.084225 69.084225 0 0 0-18.802632-50.581729zM1006.517966 439.257736c-59.020845-2.242192-104.976949-51.446826-102.717103-109.779124 2.259847-58.314642 52.047098-103.741096 111.067943-101.516559 59.020845 2.259847 104.994604 51.464482 102.717103 109.779124-2.259847 58.332297-52.047098 103.741096-111.067943 101.516559z m-388.234631 487.049966l18.09643-77.752856-425.345554 28.901323A35.769139 35.769139 0 0 1 176.553891 858.0003a35.115902 35.115902 0 0 1 5.049346-38.894084l315.125053-357.691388a35.804449 35.804449 0 0 1 25.952929-12.023091 36.08693 36.08693 0 0 1 26.623821 10.822548l105.506601 108.755131-45.444108-115.976048 80.083323-200.084724-73.798124-160.184302L646.443146 0 66.351046 39.564975C26.980277 42.319164-2.591938 75.863766 0.179905 114.757849l58.844294 843.717361a69.419671 69.419671 0 0 0 24.205079 48.162987 72.562271 72.562271 0 0 0 51.711652 17.213677l517.963965-35.274797-34.65687-62.28703z" fill="#8C8C8C" p-id="5134"></path></svg>