<?xml version="1.0" standalone="no"?><!DOCTYPE svg PUBLIC "-//W3C//DTD SVG 1.1//EN" "http://www.w3.org/Graphics/SVG/1.1/DTD/svg11.dtd"><svg t="1709279332525" class="icon" viewBox="0 0 1024 1024" version="1.1" xmlns="http://www.w3.org/2000/svg" p-id="5448" xmlns:xlink="http://www.w3.org/1999/xlink" width="200" height="200"><path d="M128 320h128V256H96l-32 32v512l32 32H256v-64H128V320z m800-64H768v64h128v448h-128v64h160l32-32v-512l-32-32z m-175.36 164.48L768 448v160.64l-19.2 28.8-288 128h-29.44l-160-96-15.36-27.52v-160l19.2-29.44 288-128h29.44l160 96zM320 621.44l96 57.6V593.92L320 536.32v85.12z m37.12-137.6l92.8 55.68 216.96-96-92.8-55.68-216.96 96z m124.8 202.88l224-99.84v-89.6l-224 99.2v90.24z" fill="#60ACE0" p-id="5449"></path></svg>