<?xml version="1.0" standalone="no"?><!DOCTYPE svg PUBLIC "-//W3C//DTD SVG 1.1//EN" "http://www.w3.org/Graphics/SVG/1.1/DTD/svg11.dtd"><svg t="1669105757065" class="icon" viewBox="0 0 1024 1024" version="1.1" xmlns="http://www.w3.org/2000/svg" p-id="3638" xmlns:xlink="http://www.w3.org/1999/xlink" width="200" height="200"><path d="M431.109721 360.974302c-19.450279 0-35.353743 15.78905-35.353743 35.353743 0 19.450279 15.903464 35.353743 35.353743 35.353743s35.353743-15.78905 35.353743-35.353743c0-19.450279-15.78905-35.353743-35.353743-35.353743z m-155.602235 269.672402c-19.450279 0-35.353743 15.78905-35.353743 35.353743 0 19.450279 15.903464 35.353743 35.353743 35.353743s35.353743-15.78905 35.353743-35.353743c-0.114413-19.564693-15.903464-35.353743-35.353743-35.353743z m340.951955-98.624358c-2.517095-0.572067-5.03419-0.800894-7.551285-0.800893-16.246704 0-30.89162 11.326927-34.552849 27.802458-4.118883 18.992626 8.008939 37.870838 27.001565 41.98972 18.992626 4.118883 37.870838-8.008939 41.98972-27.001564 4.233296-18.992626-7.894525-37.870838-26.887151-41.989721zM512 0C229.284469 0 0 229.284469 0 512S229.284469 1024 512 1024 1024 794.715531 1024 512 794.715531 0 512 0z m240.268156 449.644693c-8.352179 0-16.475531-1.258547-24.255642-3.432402l-46.451844 67.618324c14.530503 20.022346 20.937654 45.879777 15.216984 71.85162-9.153073 41.989721-46.451844 70.821899-87.869498 70.821899-6.292737 0-12.699888-0.68648-19.107039-2.059441-48.396872-10.526034-79.288492-58.465251-68.762458-106.976537 0.915307-4.118883 2.173855-8.123352 3.546816-12.013407l-56.863464-57.092291c-11.212514 5.03419-23.569162 7.894525-36.726704 7.894525-6.635978 0-13.043128-0.800894-19.221452-2.059441l-70.135419 121.392626c14.530503 16.017877 23.454749 37.184358 23.454748 60.410279 0 49.541006-40.387933 89.928939-89.928938 89.928938s-89.928939-40.387933-89.928939-89.928938 40.387933-89.928939 89.928939-89.928939c6.635978 0 13.043128 0.800894 19.221452 2.059442l70.135419-121.392626c-14.530503-16.017877-23.569162-37.184358-23.569162-60.410279 0-49.541006 40.387933-89.928939 89.928939-89.928939s89.928939 40.387933 89.928938 89.928939c0 16.589944-4.576536 32.150168-12.471061 45.536536l49.998659 50.341899c0.572067-0.34324 1.144134-0.800894 1.716201-1.258547 20.13676-12.928715 44.277989-17.390838 67.732738-12.242235 3.317989 0.68648 6.407151 1.601788 9.610726 2.631509l44.850056-65.101229c-12.585475-15.44581-20.022346-35.124916-20.022347-56.520224 0-49.541006 40.387933-89.928939 89.928939-89.928938s89.928939 40.387933 89.928939 89.928938-40.27352 89.928939-89.814526 89.928939z m0-125.282682c-19.450279 0-35.353743 15.78905-35.353743 35.353743 0 19.450279 15.78905 35.353743 35.353743 35.353743s35.353743-15.78905 35.353743-35.353743c0-19.450279-15.903464-35.353743-35.353743-35.353743z" fill="#1A70CC" p-id="3639"></path></svg>