<?xml version="1.0" standalone="no"?><!DOCTYPE svg PUBLIC "-//W3C//DTD SVG 1.1//EN" "http://www.w3.org/Graphics/SVG/1.1/DTD/svg11.dtd"><svg t="1669106607776" class="icon" viewBox="0 0 1024 1024" version="1.1" xmlns="http://www.w3.org/2000/svg" p-id="38456" xmlns:xlink="http://www.w3.org/1999/xlink" width="200" height="200"><path d="M896 745.8c-17.7 0-32 14.3-32 32 0 22.9-9 44.5-25.3 60.8s-38 25.4-60.9 25.4H246.2c-22.9 0-44.5-9-60.8-25.3-16.4-16.4-25.4-38-25.4-60.9V246.2c0-22.9 9-44.5 25.3-60.8 16.3-16.3 37.9-25.3 60.8-25.3h531.7c22.9 0 44.5 9 60.8 25.3 16.3 16.3 25.3 37.9 25.3 60.8 0 17.7 14.3 32 32 32s32-14.3 32-32C928 163.4 860.6 96 777.8 96H246.2C163.4 96 96 163.4 96 246.2v531.7C96 860.6 163.4 928 246.2 928h531.7c82.8 0 150.2-67.4 150.2-150.2-0.1-17.6-14.4-32-32.1-32z" fill="#1875F0" p-id="38457"></path><path d="M761.3 646.8c6.2 6.2 14.4 9.4 22.6 9.4s16.4-3.1 22.6-9.4l112-112c12.5-12.5 12.5-32.8 0-45.3L806.6 377.4c-12.5-12.5-32.8-12.5-45.3 0s-12.5 32.8 0 45.3l57.4 57.4H464c-17.7 0-32 14.3-32 32s14.3 32 32 32h354.7l-57.4 57.4c-12.5 12.5-12.5 32.8 0 45.3z" fill="#1875F0" p-id="38458"></path></svg>