<?xml version="1.0" standalone="no"?><!DOCTYPE svg PUBLIC "-//W3C//DTD SVG 1.1//EN" "http://www.w3.org/Graphics/SVG/1.1/DTD/svg11.dtd"><svg t="1669106018137" class="icon" viewBox="0 0 1024 1024" version="1.1" xmlns="http://www.w3.org/2000/svg" p-id="6629" xmlns:xlink="http://www.w3.org/1999/xlink" width="200" height="200"><path d="M791.826 66C864.271 66 923 124.689 923 197.085v627.83C923 897.31 864.271 956 791.826 956H168.174C95.729 956 37 897.311 37 824.915v-627.83C37 124.69 95.729 66 168.174 66h623.652zM347.28 196.875c-13.971 0-25.297 11.326-25.297 25.297v142.935c-27.863 10.834-47.619 37.984-47.619 69.763 0 31.779 19.756 58.929 47.62 69.762l-0.001 288.297c0 13.97 11.326 25.297 25.297 25.297s25.297-11.326 25.297-25.297V505.816c29.576-9.923 50.89-37.937 50.89-70.946 0-33.01-21.314-61.024-50.89-70.947v-141.75c0-13.972-11.326-25.298-25.297-25.298z m268.009 0c-13.971 0-25.297 11.326-25.297 25.297v286.141c-29.017 10.235-49.818 37.97-49.818 70.578 0 32.608 20.8 60.343 49.817 70.577v143.46c0 13.972 11.327 25.298 25.298 25.298 13.971 0 25.297-11.326 25.297-25.297V649.06c28.427-10.548 48.692-37.985 48.692-70.17s-20.265-59.622-48.691-70.17l-0.001-286.549c0-13.971-11.326-25.297-25.297-25.297z" fill="#333333" p-id="6630"></path></svg>